<?xml version="1.0" encoding="utf-8"?>
<!-- Generator: Adobe Illustrator 16.0.0, SVG Export Plug-In . SVG Version: 6.00 Build 0)  -->
<!DOCTYPE svg PUBLIC "-//W3C//DTD SVG 1.1//EN" "http://www.w3.org/Graphics/SVG/1.1/DTD/svg11.dtd">
<svg version="1.1" id="Layer_1" xmlns="http://www.w3.org/2000/svg" xmlns:xlink="http://www.w3.org/1999/xlink" x="0px" y="0px"
	 width="23px" height="23px" viewBox="0 0 23 23" enable-background="new 0 0 23 23" xml:space="preserve">
<path fill="#FFFFFF" d="M17.489,5.542c0.541,0,0.98-0.443,0.98-0.99V0.989C18.47,0.443,18.03,0,17.489,0S16.51,0.443,16.51,0.989
	v3.563C16.51,5.099,16.948,5.542,17.489,5.542 M5.688,5.542c0.542,0,0.98-0.443,0.98-0.99V0.989C6.668,0.443,6.229,0,5.688,0
	C5.146,0,4.708,0.443,4.708,0.989v3.563C4.708,5.099,5.146,5.542,5.688,5.542 M9.414,13.455H7.051v2.385h2.363V13.455z
	 M12.742,16.648H10.38v2.386h2.362V16.648z M9.414,16.648H7.051v2.386h2.363V16.648z M9.414,10.261H7.051v2.386h2.363V10.261z
	 M20.899,20.879H2.101V7.665h18.799V20.879z M18.792,1.849v1.047c0.407,0.365,0.666,0.895,0.666,1.488
	c0,1.098-0.882,1.988-1.969,1.988s-1.968-0.89-1.968-1.988c0-0.593,0.258-1.124,0.666-1.488V1.849H6.99v1.047
	c0.408,0.365,0.666,0.895,0.666,1.488c0,1.098-0.881,1.988-1.969,1.988c-1.087,0-1.968-0.89-1.968-1.988
	c0-0.593,0.259-1.124,0.666-1.488V1.849H0V23h23V1.849H18.792z M6.084,13.455H3.722v2.385h2.362V13.455z M6.084,16.648H3.722v2.386
	h2.362V16.648z M19.4,13.455h-2.363v2.385H19.4V13.455z M16.072,10.261h-2.364v2.386h2.364V10.261z M12.742,13.455H10.38v2.385
	h2.362V13.455z M19.4,10.261h-2.363v2.386H19.4V10.261z M16.072,13.455h-2.364v2.385h2.364V13.455z M12.742,10.261H10.38v2.386
	h2.362V10.261z M16.072,16.648h-2.364v2.386h2.364V16.648z"/>
</svg>
