<?xml version="1.0" encoding="UTF-8" standalone="no"?>
<svg width="549px" height="302px" viewBox="0 0 549 302" version="1.1" xmlns="http://www.w3.org/2000/svg" xmlns:xlink="http://www.w3.org/1999/xlink">
    <!-- Generator: Sketch 3.7.2 (28276) - http://www.bohemiancoding.com/sketch -->
    <title>Slice 1</title>
    <desc>Created with Sketch.</desc>
    <defs></defs>
    <g id="Page-1" stroke="none" stroke-width="1" fill="none" fill-rule="evenodd">
        <g id="map">
            <g id="Group">
                <polygon id="Shape" points="466.937 220.737 466.937 212.913 465.462 211.434 462.476 211.434 453.906 220.004 453.906 226.535 451.215 229.228 438.565 229.228 438.565 247.207 440.795 249.434 468.731 249.434 477.695 258.406 490.523 258.406 499.083 249.846 499.083 236.288 483.533 220.737"></polygon>
                <polygon id="Shape" points="458.82 185.284 458.82 179.265 451.704 172.15 446.593 172.15 446.593 176.725 455.145 185.284"></polygon>
                <polygon id="Shape" points="176.345 108.791 172.907 112.212 172.91 113.062 175.163 115.33 179.024 111.469"></polygon>
                <polygon id="Shape" points="137.71 179.373 122.017 163.678 113.984 163.678 113.984 147.128 117.236 143.875 123.814 143.875 133.273 153.334 136.734 153.334 136.734 138.462 139.629 135.566 145.82 135.566 153.122 128.264 153.122 120.79 158.486 120.79 160.776 118.501 160.776 115.623 152.568 115.623 152.568 106.542 154.737 104.373 167.07 104.373 168.568 102.875 168.568 93.537 167.025 92 159.814 92 159.814 85.041 146.321 85.041 144.645 82.144 144.645 76.915 135.439 67.709 130.919 67.709 130.919 72.103 141.111 82.295 141.111 98.509 137.973 101.647 130.955 101.647 128.267 98.959 128.267 94.25 127.311 93.294 114.061 93.294 111.393 90.625 111.393 70.958 119.643 70.958 119.643 62.292 126.809 62.292 126.809 60.205 110.059 43.455 107.975 45.539 107.975 58.583 98.604 58.583 95.143 55.122 95.143 43.958 86.226 43.958 86.226 38.295 93.893 30.628 93.893 27.126 82.893 27.126 82.893 33.625 69.973 33.625 67.225 36.373 67.225 38.876 70.889 38.876 74.225 42.212 74.225 51.313 10.852 51.313 2.688 59.477 2.688 62.875 10.063 62.875 10.063 66.914 2 74.977 2 79.024 4.039 81.063 17.562 81.063 17.562 83.727 10.5 90.789 10.5 97.271 12.445 99.216 13.461 99.216 22.578 90.099 22.578 74.773 25.846 71.507 32.164 71.507 35.215 74.558 35.215 80.148 36.615 81.548 47.851 81.548 49.85 83.547 49.85 88.46 58.644 97.253 58.644 103.543 60.892 105.792 65.81 105.792 67.853 107.835 67.853 125.876 70.455 128.478 75.062 128.478 75.062 142.043 77.351 144.332 82.313 144.332 82.313 152.21 91.06 160.957 98.48 160.957 98.48 168.627 100.518 170.666 113.98 170.666 113.98 176.291 121.144 176.291 130.02 185.167 135.733 185.167 137.71 183.189"></polygon>
                <polygon id="Shape" points="490.973 209.297 492.721 207.548 492.721 205.048 483.647 205.048 474.741 196.142 469.69 196.142 469.69 200.186 478.802 209.297"></polygon>
                <polygon id="Shape" points="103.205 39.572 104.548 38.229 104.548 36.203 103.725 35.377 98.698 35.377 98.698 37.725 100.545 39.572"></polygon>
                <polygon id="Shape" points="233.563 25.333 227.667 19.437 227.667 14.5 241.438 14.5 241.438 11.039 239.898 9.5 217.312 9.5 217.312 3.125 204.812 3.125 204.812 10.125 201.273 10.125 193.148 2 188.437 2 188.437 9.5 172.91 9.5 172.91 23.453 169.858 26.506 162.476 26.506 155.909 33.071 155.909 33.25 164.976 33.25 171.296 39.57 180.687 39.57 180.687 71.25 188.812 71.25 188.812 79.211 191.602 82 193.313 82 193.313 65.586 196.024 62.875 203.149 62.875 210.524 55.5 216.313 55.5 216.313 47.75 225.438 47.75 225.438 31.812 233.563 31.812"></polygon>
                <polygon id="Shape" points="456.388 196.472 447.583 187.668 444.969 187.668 444.969 194.761 442.805 196.923 429.52 196.923 427.923 198.522 427.923 202.76 436.758 211.594 440.534 211.594 440.534 200.823 456.388 200.823"></polygon>
                <polygon id="Shape" points="228.665 72.855 230.644 70.876 230.644 68.79 228.159 68.79 226.436 70.626"></polygon>
                <polygon id="Shape" points="529.453 250.988 527.063 253.898 527.063 260.456 518.729 268.789 518.729 272.795 520.518 274.584 523.399 274.584 532.001 265.98 532.001 253.456 529.534 250.988"></polygon>
                <polygon id="Shape" points="186.529 195.25 175.818 195.25 175.818 186.584 165.863 186.584 160.029 180.75 148.98 180.75 137.751 191.977 137.751 217.524 145.855 225.628 153.164 225.628 153.164 239.98 145.726 247.418 145.726 291.43 153.977 299.68 157.579 299.68 160.423 296.836 160.423 291.055 154.884 285.516 160.441 279.961 160.441 258.876 166.903 258.876 168.568 257.211 168.568 248.938 175.839 248.938 184.568 240.211 184.568 232.75 192.193 232.75 192.193 226.125 199.529 226.125 201.318 224.336 201.318 203.875 195.154 203.875"></polygon>
                <polygon id="Shape" points="422.815 213.482 415.844 206.511 410.895 206.511 410.895 212.959 417.236 219.297 432.312 219.297 432.312 215.123 430.675 213.482"></polygon>
                <polygon id="Shape" points="333.504 234.375 336.894 234.375 339.066 232.203 339.066 221.901 335.547 221.901 333.507 223.985"></polygon>
                <polygon id="Shape" points="139.134 164.063 139.134 167.331 141.352 169.547 153.071 169.547 154.657 167.961 154.657 166.383 152.337 164.063"></polygon>
                <polygon id="Shape" points="476.782 132.638 476.782 136.426 484.661 136.426 487.407 133.68 487.407 114.906 483.43 114.906 479.282 110.761 479.282 103.847 487.407 103.847 487.407 98.285 478.386 98.285 476.782 99.888 476.782 119.974 484.407 119.974 484.407 125.013"></polygon>
                <polygon id="Shape" points="238.062 93.475 238.062 95.75 241.023 95.75 243.562 93.211 243.562 91.273 241.952 89.585"></polygon>
                <polygon id="Shape" points="256.938 101.527 256.938 85.107 253.045 81.246 251.548 81.246 251.548 94.979 246.188 100.354 246.188 104.441 254.024 104.441"></polygon>
                <path d="M324.19,170.473 L317.861,170.473 L310.023,162.634 L310.023,156.426 L316.525,156.426 L324.19,164.111 L324.19,170.473 L324.19,170.473 Z M258.06,127.75 L265.81,127.75 L265.81,120.688 L277.279,120.688 L277.279,128.383 L275.248,130.414 L275.248,134.027 L278.807,134.027 L280.873,131.961 L280.873,117.313 L289.227,117.313 L293.188,121.274 L293.188,135.67 L297.438,135.67 L297.438,120.816 L305.063,120.816 L305.063,113.089 L307.751,110.401 L317.48,120.13 L324.501,120.13 L324.501,130.724 L312.446,130.724 L310.501,132.669 L310.501,136.755 L318.376,136.755 L318.376,146.544 L315.729,149.19 L262.625,149.19 L262.625,143 L260.648,143 L258.062,140.414 L258.06,127.75 L258.06,127.75 L258.06,127.75 Z" id="Shape"></path>
                <polygon id="Shape" points="124.188 31.812 134.834 31.812 136.844 29.804 136.844 15.5 159.373 15.5 159.373 10.664 151.305 2.594 138.969 2.594 138.969 11.375 124.412 11.375 115.469 20.318 115.469 22.992 124.188 22.992"></polygon>
                <polygon id="Shape" points="353.647 25.628 350.715 25.628 342.23 34.124 342.23 47.961 345.23 47.961 345.23 38.714 353.647 30.297"></polygon>
                <polygon id="Shape" points="288.563 24.291 288.563 19.792 287.195 18.438 276.813 18.438 276.813 22.626 278.479 24.291"></polygon>
                <rect id="Rectangle-path" x="405.23" y="18.46" width="5.833" height="5.833"></rect>
                <polygon id="Shape" points="312.023 158.426 312.023 161.806 318.689 168.473 322.19 168.473 322.19 164.937 315.695 158.426"></polygon>
                <polygon id="Shape" points="111.313 30.542 111.313 26.373 104.233 19.292 100.105 19.292 100.105 24.003 106.643 30.542"></polygon>
                <polygon id="Shape" points="152.729 50.873 145.148 43.292 123.562 43.292 123.562 46.084 130.101 46.084 132.812 48.795 132.812 55 145.435 55 148.479 58.045 148.479 72.209 161.062 72.209 161.062 67.373 152.729 59.04"></polygon>
                <polygon id="Shape" points="264.624 141.003 264.625 147.188 314.898 147.188 316.379 145.711 316.379 138.75 308.504 138.75 308.504 131.836 311.617 128.719 322.504 128.719 322.504 122.125 316.648 122.125 307.754 113.227 307.064 113.915 307.064 122.811 299.439 122.811 299.439 137.665 291.189 137.665 291.189 122.102 288.4 119.313 282.877 119.313 282.877 132.792 279.635 136.034 273.252 136.034 273.252 129.589 275.283 127.558 275.283 122.691 267.814 122.691 267.814 129.753 260.064 129.753 260.064 139.589 261.478 141.003"></polygon>
                <path d="M139.709,184.023 L139.709,178.548 L122.842,161.681 L115.985,161.681 L115.985,147.959 L118.065,145.878 L122.987,145.878 L132.446,155.337 L138.735,155.337 L138.735,139.293 L140.458,137.566 L146.649,137.566 L155.123,129.092 L155.123,122.79 L159.315,122.79 L162.777,119.329 L162.777,113.623 L154.569,113.623 L154.569,107.37 L155.566,106.373 L167.899,106.373 L170.569,103.703 L170.569,92.711 L167.856,90 L161.817,90 L161.817,83.044 L147.478,83.044 L146.648,81.606 L146.648,76.085 L136.27,65.708 L128.92,65.708 L128.92,72.93 L139.113,83.122 L139.113,97.68 L137.147,99.646 L131.788,99.646 L130.269,98.127 L130.269,93.419 L128.141,91.291 L114.891,91.291 L113.395,89.794 L113.395,72.958 L121.645,72.958 L121.645,64.292 L128.811,64.292 L128.811,59.377 L110.061,40.627 L105.977,44.711 L105.977,56.583 L99.434,56.583 L97.145,54.294 L97.145,41.958 L88.23,41.958 L88.23,39.123 L95.897,31.456 L95.897,25.126 L80.897,25.126 L80.897,31.625 L69.149,31.625 L65.229,35.545 L65.229,40.876 L70.065,40.876 L72.229,43.04 L72.229,49.311 L10.024,49.311 L0.688,58.647 L0.688,64.876 L8.062,64.876 L8.062,66.087 L0,74.149 L0,79.852 L3.211,83.063 L15.399,83.063 L8.5,89.961 L8.5,98.102 L11.617,101.219 L14.289,101.219 L24.578,90.93 L24.578,75.602 L26.672,73.508 L31.336,73.508 L33.215,75.387 L33.215,80.977 L35.787,83.549 L47.023,83.549 L47.85,84.376 L47.85,89.289 L56.644,98.082 L56.644,104.372 L60.064,107.793 L64.982,107.793 L65.853,108.664 L65.853,126.705 L69.624,130.476 L73.062,130.476 L73.062,142.872 L76.523,146.333 L80.313,146.333 L80.313,153.039 L90.232,162.958 L96.48,162.958 L96.48,169.456 L99.69,172.667 L111.981,172.667 L111.981,178.292 L120.317,178.292 L129.192,187.167 L136.561,187.167 L139.709,184.023 L139.709,184.023 Z M130.02,185.167 L121.144,176.291 L113.98,176.291 L113.98,170.666 L100.518,170.666 L98.48,168.627 L98.48,160.957 L91.06,160.957 L82.313,152.21 L82.313,144.332 L77.351,144.332 L75.062,142.043 L75.062,128.478 L70.455,128.478 L67.853,125.876 L67.853,107.835 L65.81,105.792 L60.892,105.792 L58.644,103.543 L58.644,97.253 L49.85,88.46 L49.85,83.547 L47.851,81.548 L36.615,81.548 L35.215,80.148 L35.215,74.558 L32.164,71.507 L25.848,71.507 L22.578,74.773 L22.578,90.099 L13.461,99.216 L12.445,99.216 L10.5,97.271 L10.5,90.791 L17.562,83.729 L17.562,81.065 L4.039,81.065 L2,79.024 L2,74.977 L10.063,66.915 L10.063,62.876 L2.688,62.876 L2.688,59.478 L10.852,51.314 L74.225,51.314 L74.225,42.213 L70.889,38.877 L67.225,38.877 L67.225,36.374 L69.973,33.626 L82.893,33.626 L82.893,27.127 L93.893,27.127 L93.893,30.629 L86.226,38.296 L86.226,43.959 L95.143,43.959 L95.143,55.123 L98.604,58.584 L107.975,58.584 L107.975,45.539 L110.059,43.455 L126.809,60.205 L126.809,62.292 L119.643,62.292 L119.643,70.958 L111.393,70.958 L111.393,90.625 L114.061,93.294 L127.311,93.294 L128.267,94.25 L128.267,98.959 L130.955,101.647 L137.975,101.647 L141.113,98.509 L141.113,82.295 L130.92,72.103 L130.92,67.709 L135.441,67.709 L144.647,76.915 L144.647,82.144 L146.323,85.041 L159.816,85.041 L159.816,92 L167.027,92 L168.57,93.537 L168.57,102.875 L167.072,104.373 L154.739,104.373 L152.57,106.542 L152.57,115.623 L160.778,115.623 L160.778,118.501 L158.488,120.79 L153.124,120.79 L153.124,128.264 L145.822,135.566 L139.631,135.566 L136.736,138.462 L136.736,153.334 L133.275,153.334 L123.816,143.875 L117.238,143.875 L113.986,147.128 L113.986,163.678 L122.019,163.678 L137.71,179.373 L137.71,183.187 L135.733,185.166 L130.02,185.166 L130.02,185.167 Z" id="Shape" fill="#000000"></path>
                <path d="M137.13,162.06 L137.13,168.154 L140.525,171.549 L153.9,171.549 L156.655,168.788 L156.655,165.554 L153.163,162.062 L137.13,162.06 L137.13,162.06 L137.13,162.06 Z M154.657,167.961 L153.071,169.547 L141.352,169.547 L139.132,167.331 L139.132,164.061 L152.335,164.061 L154.655,166.381 L154.657,167.961 L154.657,167.961 L154.657,167.961 Z" id="Shape" fill="#000000"></path>
                <path d="M104.033,41.572 L106.547,39.058 L106.547,35.373 L104.55,33.375 L96.696,33.375 L96.696,38.551 L99.717,41.572 L104.033,41.572 L104.033,41.572 Z M98.698,35.377 L103.725,35.377 L104.546,36.203 L104.546,38.227 L103.203,39.57 L100.543,39.57 L98.696,37.723 L98.698,35.377 L98.698,35.377 L98.698,35.377 Z" id="Shape" fill="#000000"></path>
                <path d="M113.312,32.542 L113.312,25.545 L105.06,17.292 L98.104,17.292 L98.104,24.831 L105.814,32.542 L113.312,32.542 L113.312,32.542 Z M100.105,19.292 L104.233,19.292 L111.313,26.373 L111.313,30.542 L106.643,30.542 L100.105,24.003 L100.105,19.292 L100.105,19.292 Z" id="Shape" fill="#000000"></path>
                <path d="M187.351,193.252 L177.812,193.252 L177.812,184.586 L166.685,184.586 L160.851,178.752 L148.148,178.752 L136.074,190.822 L135.876,191.087 L135.75,191.465 L135.75,218.354 L145.023,227.627 L151.16,227.627 L151.16,239.148 L143.722,246.586 L143.722,292.254 L153.148,301.68 L158.406,301.68 L162.419,297.667 L162.419,290.229 L157.708,285.518 L162.437,280.791 L162.437,260.878 L167.727,260.878 L170.564,258.041 L170.564,250.937 L176.664,250.937 L186.562,241.041 L186.562,234.752 L194.187,234.752 L194.187,228.127 L200.351,228.127 L203.312,225.166 L203.312,201.877 L195.976,201.877 L187.351,193.252 L187.351,193.252 Z M201.318,224.336 L199.529,226.125 L192.193,226.125 L192.193,232.75 L184.568,232.75 L184.568,240.211 L175.839,248.938 L168.568,248.938 L168.568,257.211 L166.903,258.876 L160.441,258.876 L160.441,279.961 L154.882,285.516 L160.421,291.055 L160.421,296.836 L157.577,299.68 L153.975,299.68 L145.724,291.43 L145.724,247.418 L153.162,239.98 L153.162,225.628 L145.853,225.628 L137.749,217.524 L137.749,191.977 L148.978,180.75 L160.027,180.75 L165.861,186.584 L175.816,186.584 L175.816,195.25 L186.527,195.25 L195.152,203.875 L201.316,203.875 L201.318,224.336 L201.318,224.336 L201.318,224.336 Z" id="Shape" fill="#000000"></path>
                <path d="M528.509,248.993 L525.065,253.182 L525.065,259.626 L516.731,267.959 L516.731,273.621 L519.692,276.582 L524.229,276.582 L534.002,266.811 L534.002,252.63 L530.361,248.993 L528.509,248.993 L528.509,248.993 L528.509,248.993 Z M532.001,265.98 L523.399,274.584 L520.518,274.584 L518.729,272.795 L518.729,268.789 L527.063,260.456 L527.063,253.896 L529.453,250.986 L529.534,250.986 L532.001,253.456 L532.001,265.98 L532.001,265.98 Z" id="Shape" fill="#000000"></path>
                <path d="M468.935,218.74 L468.935,212.09 L466.287,209.442 L461.646,209.442 L451.904,219.184 L451.904,225.715 L450.383,227.236 L436.563,227.236 L436.563,248.045 L439.961,251.441 L467.899,251.441 L476.868,260.411 L491.352,260.411 L501.082,250.682 L501.082,235.468 L484.357,218.744 L468.934,218.744 L468.934,218.74 L468.935,218.74 Z M499.083,249.846 L490.523,258.406 L477.695,258.406 L468.731,249.434 L440.793,249.434 L438.564,247.207 L438.564,229.228 L451.212,229.228 L453.903,226.537 L453.903,220.006 L462.473,211.436 L465.456,211.436 L466.934,212.915 L466.934,220.737 L483.53,220.737 L499.08,236.29 L499.08,249.847 L499.083,249.847 L499.083,249.846 Z" id="Shape" fill="#000000"></path>
                <path d="M467.689,201.014 L477.971,211.297 L491.801,211.297 L494.72,208.376 L494.72,203.048 L484.474,203.048 L475.568,194.142 L467.689,194.142 L467.689,201.014 L467.689,201.014 Z M469.69,196.142 L474.741,196.142 L483.647,205.048 L492.721,205.048 L492.721,207.548 L490.973,209.297 L478.8,209.297 L469.69,200.186 L469.69,196.142 L469.69,196.142 L469.69,196.142 Z" id="Shape" fill="#000000"></path>
                <path d="M176.349,105.963 L170.91,111.38 L170.91,113.889 L175.159,118.16 L181.852,111.467 L176.349,105.963 L176.349,105.963 Z M172.91,113.062 L172.907,112.212 L176.345,108.791 L179.024,111.469 L175.163,115.33 L172.91,113.062 L172.91,113.062 Z" id="Shape" fill="#000000"></path>
                <path d="M145.976,41.292 L121.562,41.292 L121.562,48.084 L129.273,48.084 L130.812,49.623 L130.812,57 L144.607,57 L146.479,58.873 L146.479,74.209 L163.062,74.209 L163.062,66.545 L154.729,58.212 L154.729,50.045 L145.976,41.292 L145.976,41.292 Z M161.062,67.373 L161.062,72.209 L148.479,72.209 L148.479,58.045 L145.435,55 L132.812,55 L132.812,48.795 L130.101,46.084 L123.562,46.084 L123.562,43.292 L145.148,43.292 L152.729,50.873 L152.729,59.04 L161.062,67.373 L161.062,67.373 Z" id="Shape" fill="#000000"></path>
                <path d="M122.187,33.812 L135.664,33.812 L138.841,30.633 L138.841,17.5 L161.372,17.5 L161.372,9.836 L152.13,0.594 L136.966,0.594 L136.966,9.377 L123.583,9.377 L113.466,19.494 L113.466,24.994 L122.189,24.994 L122.187,33.812 L122.187,33.812 L122.187,33.812 Z M115.469,22.992 L115.469,20.316 L124.41,11.375 L138.969,11.375 L138.969,2.594 L151.305,2.594 L159.371,10.664 L159.371,15.5 L136.844,15.5 L136.844,29.804 L134.832,31.812 L124.186,31.812 L124.186,22.994 L115.469,22.992 L115.469,22.992 L115.469,22.992 Z" id="Shape" fill="#000000"></path>
                <path d="M262.623,143 L262.623,149.188 L315.727,149.188 L318.375,146.542 L318.375,136.753 L310.5,136.753 L310.5,132.667 L312.444,130.722 L324.5,130.722 L324.5,120.128 L317.479,120.128 L307.75,110.399 L305.062,113.087 L305.062,120.814 L297.437,120.814 L297.437,135.668 L293.187,135.668 L293.187,121.272 L289.226,117.311 L280.872,117.311 L280.872,131.959 L278.806,134.025 L275.247,134.025 L275.247,130.412 L277.278,128.381 L277.278,120.686 L265.81,120.686 L265.81,127.748 L258.06,127.748 L258.06,140.412 L260.646,142.998 L262.623,143 L262.623,143 L262.623,143 Z M260.064,129.753 L267.814,129.753 L267.814,122.691 L275.283,122.691 L275.283,127.558 L273.252,129.589 L273.252,136.034 L279.637,136.034 L282.877,132.792 L282.877,119.313 L288.4,119.313 L291.189,122.102 L291.189,137.665 L299.439,137.665 L299.439,122.811 L307.064,122.811 L307.064,113.915 L307.752,113.227 L316.648,122.125 L322.502,122.125 L322.502,128.719 L311.615,128.719 L308.502,131.836 L308.502,138.75 L316.377,138.75 L316.377,145.711 L314.898,147.188 L264.625,147.188 L264.624,141.003 L261.478,141.003 L260.064,139.589 L260.064,129.753 L260.064,129.753 L260.064,129.753 Z" id="Shape" fill="#000000"></path>
                <path d="M310.023,156.426 L310.023,162.634 L317.861,170.473 L324.19,170.473 L324.19,164.111 L316.525,156.426 L310.023,156.426 L310.023,156.426 Z M322.19,168.473 L318.689,168.473 L312.023,161.806 L312.023,158.426 L315.695,158.426 L322.19,164.937 L322.19,168.473 L322.19,168.473 Z" id="Shape" fill="#000000"></path>
                <path d="M331.502,223.171 L331.502,236.375 L337.722,236.375 L341.063,233.027 L341.063,219.9 L334.7,219.9 L331.502,223.171 L331.502,223.171 Z M339.066,221.901 L339.066,232.205 L336.894,234.377 L333.502,234.377 L333.505,223.985 L335.545,221.901 L339.066,221.901 L339.066,221.901 Z" id="Shape" fill="#000000"></path>
                <path d="M413.063,16.46 L403.23,16.46 L403.23,26.293 L413.063,26.293 L413.063,16.46 L413.063,16.46 Z M411.063,24.293 L405.23,24.293 L405.23,18.46 L411.063,18.46 L411.063,24.293 L411.063,24.293 Z" id="Shape" fill="#000000"></path>
                <path d="M347.23,39.542 L355.647,31.125 L355.647,23.628 L349.883,23.628 L340.23,33.296 L340.23,49.961 L347.23,49.961 L347.23,39.542 L347.23,39.542 L347.23,39.542 Z M345.23,47.961 L342.23,47.961 L342.23,34.124 L350.713,25.628 L353.647,25.628 L353.647,30.297 L345.23,38.714 L345.23,47.961 L345.23,47.961 Z" id="Shape" fill="#000000"></path>
                <path d="M227.437,33.811 L235.562,33.811 L235.562,24.501 L229.666,18.605 L229.666,16.5 L243.437,16.5 L243.437,10.211 L240.726,7.5 L219.312,7.5 L219.312,1.125 L202.812,1.125 L202.812,8.125 L202.101,8.125 L193.976,0 L186.437,0 L186.437,7.5 L170.91,7.5 L170.91,22.627 L169.03,24.508 L161.648,24.508 L153.909,32.247 L153.909,35.252 L164.148,35.252 L170.47,41.57 L178.687,41.57 L178.687,73.25 L186.812,73.25 L186.812,80.039 L190.773,84 L195.312,84 L195.312,66.414 L196.851,64.875 L203.976,64.875 L211.351,57.5 L218.312,57.5 L218.312,49.75 L227.437,49.75 L227.437,33.811 L227.437,33.811 Z M225.438,47.75 L216.313,47.75 L216.313,55.5 L210.524,55.5 L203.149,62.875 L196.024,62.875 L193.313,65.586 L193.313,82 L191.602,82 L188.812,79.211 L188.812,71.25 L180.687,71.25 L180.687,39.57 L171.294,39.57 L164.976,33.252 L155.909,33.252 L155.909,33.071 L162.476,26.508 L169.858,26.508 L172.91,23.455 L172.91,9.5 L188.437,9.5 L188.437,2 L193.148,2 L201.273,10.125 L204.812,10.125 L204.812,3.125 L217.312,3.125 L217.312,9.5 L239.898,9.5 L241.438,11.039 L241.438,14.5 L227.667,14.5 L227.667,19.437 L233.563,25.333 L233.563,31.812 L225.438,31.812 L225.438,47.75 L225.438,47.75 Z" id="Shape" fill="#000000"></path>
                <path d="M460.819,187.284 L460.816,178.437 L452.528,170.15 L444.589,170.15 L444.589,177.553 L454.318,187.282 L460.819,187.284 L460.819,187.284 L460.819,187.284 Z M446.593,172.15 L451.704,172.15 L458.82,179.265 L458.82,185.286 L455.145,185.286 L446.591,176.725 L446.593,172.15 L446.593,172.15 L446.593,172.15 Z" id="Shape" fill="#000000"></path>
                <path d="M442.535,213.594 L442.535,202.821 L458.389,202.821 L458.389,195.642 L448.41,185.666 L442.97,185.666 L442.97,193.931 L441.98,194.921 L428.695,194.921 L425.924,197.692 L425.924,203.588 L435.93,213.594 L442.535,213.594 L442.535,213.594 L442.535,213.594 Z M440.534,211.594 L436.758,211.594 L427.923,202.76 L427.923,198.522 L429.522,196.923 L442.807,196.923 L444.969,194.761 L444.969,187.668 L447.583,187.668 L456.39,196.472 L456.39,200.823 L440.536,200.823 L440.534,211.594 L440.534,211.594 L440.534,211.594 Z" id="Shape" fill="#000000"></path>
                <path d="M423.643,211.485 L416.671,204.514 L408.895,204.514 L408.895,213.79 L416.408,221.297 L434.312,221.297 L434.312,214.297 L431.5,211.485 L423.643,211.485 L423.643,211.485 Z M432.312,219.297 L417.236,219.297 L410.895,212.959 L410.895,206.511 L415.843,206.511 L422.815,213.482 L430.673,213.482 L432.312,215.125 L432.312,219.297 L432.312,219.297 Z" id="Shape" fill="#000000"></path>
                <path d="M474.782,131.805 L474.782,138.426 L485.489,138.426 L489.407,134.511 L489.407,112.907 L484.261,112.907 L481.282,109.93 L481.282,105.844 L489.407,105.844 L489.407,96.282 L477.555,96.282 L474.782,99.055 L474.782,121.969 L482.407,121.969 L482.407,124.18 L474.782,131.805 L474.782,131.805 Z M476.782,119.974 L476.782,99.888 L478.386,98.285 L487.407,98.285 L487.407,103.847 L479.282,103.847 L479.282,110.761 L483.43,114.907 L487.407,114.907 L487.407,133.68 L484.661,136.426 L476.782,136.426 L476.782,132.638 L484.407,125.013 L484.407,119.974 L476.782,119.974 L476.782,119.974 Z" id="Shape" fill="#000000"></path>
                <path d="M244.188,106.441 L254.852,106.441 L258.935,102.353 L258.935,84.273 L253.869,79.246 L249.548,79.246 L249.548,94.153 L244.19,99.528 L244.188,106.441 L244.188,106.441 L244.188,106.441 Z M246.188,100.354 L251.546,94.979 L251.546,81.246 L253.043,81.246 L256.938,85.105 L256.938,101.525 L254.024,104.439 L246.188,104.439 L246.188,100.354 L246.188,100.354 Z" id="Shape" fill="#000000"></path>
                <path d="M236.063,92.646 L236.063,97.75 L241.852,97.75 L245.563,94.036 L245.563,90.472 L241.986,86.723 L236.063,92.646 L236.063,92.646 Z M243.562,93.211 L241.023,95.75 L238.062,95.75 L238.062,93.475 L241.952,89.585 L243.562,91.273 L243.562,93.211 L243.562,93.211 Z" id="Shape" fill="#000000"></path>
                <path d="M223.648,70.667 L228.667,75.686 L232.646,71.707 L232.646,66.793 L227.293,66.793 L223.648,70.667 L223.648,70.667 Z M230.644,68.79 L230.644,70.876 L228.665,72.855 L226.436,70.626 L228.159,68.79 L230.644,68.79 L230.644,68.79 Z" id="Shape" fill="#000000"></path>
                <path d="M290.562,26.291 L290.562,18.958 L288.016,16.437 L274.812,16.437 L274.812,23.455 L277.65,26.293 L290.562,26.291 L290.562,26.291 L290.562,26.291 Z M276.813,18.438 L287.195,18.438 L288.563,19.792 L288.563,24.291 L278.479,24.291 L276.813,22.626 L276.813,18.438 L276.813,18.438 L276.813,18.438 Z" id="Shape" fill="#000000"></path>
                <path d="M539.898,49.955 L493.316,49.955 L493.316,40.621 L475.733,40.621 L475.733,48.704 L459.733,48.704 L459.733,40.704 L433.314,40.704 L430.65,38.04 L430.65,22.039 L420.952,22.039 L420.952,30.761 L419.402,32.311 L397.84,32.311 L389.736,40.415 L366.194,40.415 L355.565,51.044 L355.565,57.291 L332.815,57.291 L332.815,50.291 L324.961,50.291 L324.961,63.352 L322.899,65.414 L317.936,65.414 L315.897,63.375 L315.897,49.041 L292.899,49.041 L283.396,58.544 L283.396,65.541 L274.378,65.541 L274.378,73.776 L266.447,81.711 L266.447,86.982 L269.593,90.128 L283.812,90.128 L283.812,81.294 L293.812,81.294 L293.812,65.627 L299.728,65.627 L299.728,75.793 L305.977,75.793 L305.977,81.794 L298.394,81.794 L298.394,89.377 L291.23,89.377 L282.646,97.96 L261.81,97.96 L261.81,105.502 L258.855,105.502 L255.958,108.398 L250.655,108.398 L250.655,109.079 L250.655,110.398 L250.655,114.449 L250.655,114.465 L255.395,119.206 L255.395,121.582 L253.69,121.582 L251.062,124.21 L251.062,126.166 L245.19,126.166 L242.229,129.127 L242.229,139.955 L245.481,143.207 L254.728,143.207 L254.728,147.051 L244.158,147.051 L235,156.209 L235,175.183 L245.148,185.331 L267.69,185.331 L275.312,192.953 L275.312,202.289 L282.895,202.289 L282.895,240.454 L293.731,251.29 L307.562,251.29 L307.561,243.12 L315.229,243.12 L315.229,226.787 L323.147,226.787 L323.147,194.578 L328.352,194.578 L338.73,184.199 L338.73,177.536 L332.314,177.536 L332.314,172.786 L348.481,172.786 L348.481,162.873 L339.561,153.953 L330.73,153.953 L330.73,145.58 L338.44,145.58 L348.066,155.206 L363.645,155.206 L363.645,159.369 L366.606,162.33 L371.01,162.33 L371.01,176.672 L381.441,187.102 L385.249,187.102 L388.064,184.29 L388.064,171.352 L397.232,171.352 L397.232,161.623 L403.128,161.623 L403.128,170.891 L410.774,178.537 L410.774,197.412 L414.318,200.956 L419.899,200.956 L419.899,186.037 L429.068,176.869 L429.068,169.122 L421.149,169.122 L421.149,162.539 L453.817,162.539 L453.817,145.375 L445.401,136.958 L445.401,130.705 L452.178,130.705 L452.178,137.559 L460.485,145.87 L460.485,121.624 L469.36,121.624 L469.36,98.162 L477.985,89.537 L477.985,81.831 L498.524,81.831 L507.399,72.956 L514.194,72.956 L514.194,76.168 L500.318,90.044 L500.318,105.581 L505.69,105.581 L508.735,102.536 L508.735,89.015 L516.297,89.015 L524.193,81.119 L524.193,75.41 L525.732,73.871 L541.231,73.871 L548.901,66.202 L548.901,58.957 L539.898,49.955 L539.898,49.955 Z M546.901,65.374 L540.403,71.871 L524.904,71.871 L522.193,74.582 L522.193,80.291 L515.466,87.018 L506.735,87.018 L506.735,101.71 L504.862,103.583 L502.318,103.583 L502.318,90.872 L516.194,76.996 L516.194,70.956 L506.571,70.956 L497.696,79.831 L475.985,79.831 L475.985,88.709 L467.36,97.334 L467.36,119.623 L458.485,119.623 L458.485,141.041 L454.178,136.73 L454.178,128.705 L443.401,128.705 L443.401,137.786 L451.817,146.203 L451.817,160.539 L419.149,160.539 L419.149,171.122 L427.068,171.122 L427.068,176.041 L417.899,185.209 L417.899,198.956 L415.146,198.956 L412.774,196.584 L412.774,177.709 L405.128,170.063 L405.128,159.625 L395.232,159.625 L395.232,169.354 L386.064,169.354 L386.064,183.462 L384.42,185.106 L382.269,185.106 L373.01,175.848 L373.01,160.334 L367.434,160.334 L365.645,158.545 L365.645,153.21 L348.894,153.21 L339.268,143.584 L328.73,143.584 L328.73,155.957 L338.733,155.957 L346.481,163.705 L346.481,170.79 L330.314,170.79 L330.314,179.54 L336.73,179.54 L336.73,183.376 L327.524,192.582 L321.147,192.582 L321.147,224.791 L313.229,224.791 L313.229,241.124 L305.561,241.124 L305.561,249.291 L294.558,249.291 L284.897,239.627 L284.897,200.29 L277.314,200.29 L277.314,192.126 L268.52,183.332 L245.978,183.332 L236.999,174.353 L236.999,157.04 L244.986,149.053 L256.728,149.053 L256.728,141.209 L246.309,141.209 L244.229,139.129 L244.229,129.957 L246.018,128.168 L253.062,128.168 L253.062,125.04 L254.518,123.584 L257.395,123.584 L257.395,118.379 L252.655,113.638 L252.655,110.4 L256.786,110.4 L259.683,107.504 L263.81,107.504 L263.81,99.96 L283.474,99.96 L292.058,91.377 L300.394,91.377 L300.394,83.794 L307.977,83.794 L307.977,73.793 L301.728,73.793 L301.728,63.627 L291.812,63.627 L291.812,79.293 L281.812,79.293 L281.812,88.127 L270.42,88.127 L268.449,86.152 L268.449,82.541 L276.38,74.606 L276.38,67.543 L285.398,67.543 L285.398,59.374 L293.729,51.043 L313.899,51.043 L313.899,64.205 L317.11,67.416 L323.729,67.416 L326.961,64.184 L326.961,52.291 L330.815,52.291 L330.815,59.291 L357.565,59.291 L357.565,51.872 L367.022,42.415 L390.567,42.415 L398.671,34.311 L420.233,34.311 L422.955,31.589 L422.955,24.039 L428.653,24.039 L428.653,38.868 L432.489,42.704 L457.736,42.704 L457.736,50.704 L477.736,50.704 L477.736,42.621 L491.319,42.621 L491.319,51.955 L539.073,51.955 L546.903,59.785 L546.901,65.374 L546.901,65.374 L546.901,65.374 Z" id="Shape" fill="#000000"></path>
            </g>
        </g>
    </g>
</svg>