<?xml version="1.0" encoding="utf-8"?>
<!-- Generator: Adobe Illustrator 16.0.0, SVG Export Plug-In . SVG Version: 6.00 Build 0)  -->
<!DOCTYPE svg PUBLIC "-//W3C//DTD SVG 1.1//EN" "http://www.w3.org/Graphics/SVG/1.1/DTD/svg11.dtd">
<svg version="1.1" id="Layer_1" xmlns="http://www.w3.org/2000/svg" xmlns:xlink="http://www.w3.org/1999/xlink" x="0px" y="0px"
	 width="548.9px" height="301.68px" viewBox="0 0 548.9 301.68" enable-background="new 0 0 548.9 301.68" xml:space="preserve">
<g>
	<polygon fill="none" points="466.937,220.737 466.937,212.913 465.462,211.434 462.476,211.434 453.906,220.004 453.906,226.535 
		451.215,229.228 438.565,229.228 438.565,247.207 440.795,249.434 468.731,249.434 477.695,258.406 490.523,258.406 
		499.083,249.846 499.083,236.288 483.533,220.737 	"/>
	<polygon fill="none" points="458.82,185.284 458.82,179.265 451.704,172.15 446.593,172.15 446.593,176.725 455.145,185.284 	"/>
	<polygon fill="none" points="176.345,108.791 172.907,112.212 172.91,113.062 175.163,115.33 179.024,111.469 	"/>
	<polygon fill="none" points="137.71,179.373 122.017,163.678 113.984,163.678 113.984,147.128 117.236,143.875 123.814,143.875 
		133.273,153.334 136.734,153.334 136.734,138.462 139.629,135.566 145.82,135.566 153.122,128.264 153.122,120.79 158.486,120.79 
		160.776,118.501 160.776,115.623 152.568,115.623 152.568,106.542 154.737,104.373 167.07,104.373 168.568,102.875 168.568,93.537 
		167.025,92 159.814,92 159.814,85.041 146.321,85.041 144.645,82.144 144.645,76.915 135.439,67.709 130.919,67.709 
		130.919,72.103 141.111,82.295 141.111,98.509 137.973,101.647 130.955,101.647 128.267,98.959 128.267,94.25 127.311,93.294 
		114.061,93.294 111.393,90.625 111.393,70.958 119.643,70.958 119.643,62.292 126.809,62.292 126.809,60.205 110.059,43.455 
		107.975,45.539 107.975,58.583 98.604,58.583 95.143,55.122 95.143,43.958 86.226,43.958 86.226,38.295 93.893,30.628 
		93.893,27.126 82.893,27.126 82.893,33.625 69.973,33.625 67.225,36.373 67.225,38.876 70.889,38.876 74.225,42.212 74.225,51.313 
		10.852,51.313 2.688,59.477 2.688,62.875 10.063,62.875 10.063,66.914 2,74.977 2,79.024 4.039,81.063 17.562,81.063 
		17.562,83.727 10.5,90.789 10.5,97.271 12.445,99.216 13.461,99.216 22.578,90.099 22.578,74.773 25.846,71.507 32.164,71.507 
		35.215,74.558 35.215,80.148 36.615,81.548 47.851,81.548 49.85,83.547 49.85,88.46 58.644,97.253 58.644,103.543 60.892,105.792 
		65.81,105.792 67.853,107.835 67.853,125.876 70.455,128.478 75.062,128.478 75.062,142.043 77.351,144.332 82.313,144.332 
		82.313,152.21 91.06,160.957 98.48,160.957 98.48,168.627 100.518,170.666 113.98,170.666 113.98,176.291 121.144,176.291 
		130.02,185.167 135.733,185.167 137.71,183.189 	"/>
	<polygon fill="none" points="490.973,209.297 492.721,207.548 492.721,205.048 483.647,205.048 474.741,196.142 469.69,196.142 
		469.69,200.186 478.802,209.297 	"/>
	<polygon fill="none" points="103.205,39.572 104.548,38.229 104.548,36.203 103.725,35.377 98.698,35.377 98.698,37.725 
		100.545,39.572 	"/>
	<polygon fill="none" points="233.563,25.333 227.667,19.437 227.667,14.5 241.438,14.5 241.438,11.039 239.898,9.5 217.312,9.5 
		217.312,3.125 204.812,3.125 204.812,10.125 201.273,10.125 193.148,2 188.437,2 188.437,9.5 172.91,9.5 172.91,23.453 
		169.858,26.506 162.476,26.506 155.909,33.071 155.909,33.25 164.976,33.25 171.296,39.57 180.687,39.57 180.687,71.25 
		188.812,71.25 188.812,79.211 191.602,82 193.313,82 193.313,65.586 196.024,62.875 203.149,62.875 210.524,55.5 216.313,55.5 
		216.313,47.75 225.438,47.75 225.438,31.812 233.563,31.812 	"/>
	<polygon fill="none" points="456.388,196.472 447.583,187.668 444.969,187.668 444.969,194.761 442.805,196.923 429.52,196.923 
		427.923,198.522 427.923,202.76 436.758,211.594 440.534,211.594 440.534,200.823 456.388,200.823 	"/>
	<polygon fill="none" points="228.665,72.855 230.644,70.876 230.644,68.79 228.159,68.79 226.436,70.626 	"/>
	<polygon fill="none" points="529.453,250.988 527.063,253.898 527.063,260.456 518.729,268.789 518.729,272.795 520.518,274.584 
		523.399,274.584 532.001,265.98 532.001,253.456 529.534,250.988 	"/>
	<polygon fill="none" points="186.529,195.25 175.818,195.25 175.818,186.584 165.863,186.584 160.029,180.75 148.98,180.75 
		137.751,191.977 137.751,217.524 145.855,225.628 153.164,225.628 153.164,239.98 145.726,247.418 145.726,291.43 153.977,299.68 
		157.579,299.68 160.423,296.836 160.423,291.055 154.884,285.516 160.441,279.961 160.441,258.876 166.903,258.876 
		168.568,257.211 168.568,248.938 175.839,248.938 184.568,240.211 184.568,232.75 192.193,232.75 192.193,226.125 199.529,226.125 
		201.318,224.336 201.318,203.875 195.154,203.875 	"/>
	<polygon fill="none" points="422.815,213.482 415.844,206.511 410.895,206.511 410.895,212.959 417.236,219.297 432.312,219.297 
		432.312,215.123 430.675,213.482 	"/>
	<polygon fill="none" points="333.504,234.375 336.894,234.375 339.066,232.203 339.066,221.901 335.547,221.901 333.507,223.985 	
		"/>
	<polygon fill="none" points="139.134,164.063 139.134,167.331 141.352,169.547 153.071,169.547 154.657,167.961 154.657,166.383 
		152.337,164.063 	"/>
	<polygon fill="none" points="476.782,132.638 476.782,136.426 484.661,136.426 487.407,133.68 487.407,114.906 483.43,114.906 
		479.282,110.761 479.282,103.847 487.407,103.847 487.407,98.285 478.386,98.285 476.782,99.888 476.782,119.974 484.407,119.974 
		484.407,125.013 	"/>
	<polygon fill="none" points="238.062,93.475 238.062,95.75 241.023,95.75 243.562,93.211 243.562,91.273 241.952,89.585 	"/>
	<polygon fill="none" points="256.938,101.527 256.938,85.107 253.045,81.246 251.548,81.246 251.548,94.979 246.188,100.354 
		246.188,104.441 254.024,104.441 	"/>
	<path fill="none" d="M324.19,170.473h-6.329l-7.838-7.839v-6.208h6.502l7.665,7.685V170.473z M258.06,127.75h7.75v-7.062h11.469
		v7.695l-2.031,2.031v3.613h3.559l2.066-2.066v-14.648h8.354l3.961,3.961v14.396h4.25v-14.854h7.625v-7.727l2.688-2.688l9.729,9.729
		h7.021v10.594h-12.055l-1.945,1.945v4.086h7.875v9.789l-2.647,2.646h-53.104V143h-1.977l-2.586-2.586L258.06,127.75L258.06,127.75z
		"/>
	<polygon fill="none" points="124.188,31.812 134.834,31.812 136.844,29.804 136.844,15.5 159.373,15.5 159.373,10.664 
		151.305,2.594 138.969,2.594 138.969,11.375 124.412,11.375 115.469,20.318 115.469,22.992 124.188,22.992 	"/>
	<polygon fill="none" points="353.647,25.628 350.715,25.628 342.23,34.124 342.23,47.961 345.23,47.961 345.23,38.714 
		353.647,30.297 	"/>
	<polygon fill="none" points="288.563,24.291 288.563,19.792 287.195,18.438 276.813,18.438 276.813,22.626 278.479,24.291 	"/>
	<rect x="405.23" y="18.46" fill="none" width="5.833" height="5.833"/>
	<polygon fill="none" points="312.023,158.426 312.023,161.806 318.689,168.473 322.19,168.473 322.19,164.937 315.695,158.426 	"/>
	<polygon fill="none" points="111.313,30.542 111.313,26.373 104.233,19.292 100.105,19.292 100.105,24.003 106.643,30.542 	"/>
	<polygon fill="none" points="152.729,50.873 145.148,43.292 123.562,43.292 123.562,46.084 130.101,46.084 132.812,48.795 
		132.812,55 145.435,55 148.479,58.045 148.479,72.209 161.062,72.209 161.062,67.373 152.729,59.04 	"/>
	<polygon fill="none" points="264.624,141.003 264.625,147.188 314.898,147.188 316.379,145.711 316.379,138.75 308.504,138.75 
		308.504,131.836 311.617,128.719 322.504,128.719 322.504,122.125 316.648,122.125 307.754,113.227 307.064,113.915 
		307.064,122.811 299.439,122.811 299.439,137.665 291.189,137.665 291.189,122.102 288.4,119.313 282.877,119.313 282.877,132.792 
		279.635,136.034 273.252,136.034 273.252,129.589 275.283,127.558 275.283,122.691 267.814,122.691 267.814,129.753 
		260.064,129.753 260.064,139.589 261.478,141.003 	"/>
	<path d="M139.709,184.023v-5.475l-16.867-16.867h-6.857v-13.722l2.08-2.081h4.922l9.459,9.459h6.289v-16.044l1.723-1.727h6.191
		l8.474-8.474v-6.302h4.192l3.462-3.461v-5.706h-8.208v-6.253l0.997-0.997h12.333l2.67-2.67V92.711L167.856,90h-6.039v-6.956
		h-14.339l-0.83-1.438v-5.521L136.27,65.708h-7.35v7.222l10.193,10.192V97.68l-1.966,1.966h-5.359l-1.519-1.519v-4.708l-2.128-2.128
		h-13.25l-1.496-1.497V72.958h8.25v-8.666h7.166v-4.915l-18.75-18.75l-4.084,4.084v11.872h-6.543l-2.289-2.289V41.958H88.23v-2.835
		l7.667-7.667v-6.33h-15v6.499H69.149l-3.92,3.92v5.331h4.836l2.164,2.164v6.271H10.024l-9.336,9.336v6.229h7.374v1.211L0,74.149
		v5.703l3.211,3.211h12.188L8.5,89.961v8.141l3.117,3.117h2.672L24.578,90.93V75.602l2.094-2.094h4.664l1.879,1.879v5.59
		l2.572,2.572h11.236l0.827,0.827v4.913l8.794,8.793v6.29l3.42,3.421h4.918l0.871,0.871v18.041l3.771,3.771h3.438v12.396
		l3.461,3.461h3.79v6.706l9.919,9.919h6.248v6.498l3.21,3.211h12.291v5.625h8.336l8.875,8.875h7.369L139.709,184.023z
		 M130.02,185.167l-8.876-8.876h-7.164v-5.625h-13.462l-2.038-2.039v-7.67h-7.42l-8.747-8.747v-7.878h-4.962l-2.289-2.289v-13.565
		h-4.607l-2.602-2.602v-18.041l-2.043-2.043h-4.918l-2.248-2.249v-6.29L49.85,88.46v-4.913l-1.999-1.999H36.615l-1.4-1.4v-5.59
		l-3.051-3.051h-6.316l-3.27,3.266v15.326l-9.117,9.117h-1.016L10.5,97.271v-6.48l7.062-7.062v-2.664H4.039L2,79.024v-4.047
		l8.063-8.062v-4.039H2.688v-3.398l8.164-8.164h63.373v-9.101l-3.336-3.336h-3.664v-2.503l2.748-2.748h12.92v-6.499h11v3.502
		l-7.667,7.667v5.663h8.917v11.164l3.461,3.461h9.371V45.539l2.084-2.084l16.75,16.75v2.087h-7.166v8.666h-8.25v19.667l2.668,2.669
		h13.25l0.956,0.956v4.709l2.688,2.688h7.02l3.138-3.138V82.295L130.92,72.103v-4.394h4.521l9.206,9.206v5.229l1.676,2.897h13.493
		V92h7.211l1.543,1.537v9.338l-1.498,1.498h-12.333l-2.169,2.169v9.081h8.208v2.878l-2.29,2.289h-5.364v7.474l-7.302,7.302h-6.191
		l-2.895,2.896v14.872h-3.461l-9.459-9.459h-6.578l-3.252,3.253v16.55h8.033l15.691,15.695v3.814l-1.977,1.979H130.02z"/>
	<path d="M137.13,162.06v6.094l3.395,3.395h13.375l2.755-2.761v-3.234l-3.492-3.492L137.13,162.06L137.13,162.06z M154.657,167.961
		l-1.586,1.586h-11.719l-2.22-2.216v-3.27h13.203l2.32,2.32L154.657,167.961L154.657,167.961z"/>
	<path d="M104.033,41.572l2.514-2.514v-3.685l-1.997-1.998h-7.854v5.176l3.021,3.021H104.033z M98.698,35.377h5.027l0.821,0.826
		v2.024l-1.343,1.343h-2.66l-1.847-1.847L98.698,35.377L98.698,35.377z"/>
	<path d="M113.312,32.542v-6.997l-8.252-8.253h-6.956v7.539l7.71,7.711H113.312z M100.105,19.292h4.128l7.08,7.081v4.169h-4.67
		l-6.538-6.539V19.292z"/>
	<path d="M187.351,193.252h-9.539v-8.666h-11.127l-5.834-5.834h-12.703l-12.074,12.07l-0.198,0.265l-0.126,0.378v26.889l9.273,9.273
		h6.137v11.521l-7.438,7.438v45.668l9.426,9.426h5.258l4.013-4.013v-7.438l-4.711-4.711l4.729-4.727v-19.913h5.29l2.837-2.837
		v-7.104h6.1l9.898-9.896v-6.289h7.625v-6.625h6.164l2.961-2.961v-23.289h-7.336L187.351,193.252z M201.318,224.336l-1.789,1.789
		h-7.336v6.625h-7.625v7.461l-8.729,8.727h-7.271v8.273l-1.665,1.665h-6.462v21.085l-5.559,5.555l5.539,5.539v5.781l-2.844,2.844
		h-3.602l-8.251-8.25v-44.012l7.438-7.438v-14.352h-7.309l-8.104-8.104v-25.547l11.229-11.227h11.049l5.834,5.834h9.955v8.666
		h10.711l8.625,8.625h6.164L201.318,224.336L201.318,224.336z"/>
	<path d="M528.509,248.993l-3.444,4.189v6.444l-8.334,8.333v5.662l2.961,2.961h4.537l9.773-9.771V252.63l-3.641-3.637H528.509
		L528.509,248.993z M532.001,265.98l-8.602,8.604h-2.881l-1.789-1.789v-4.006l8.334-8.333v-6.56l2.39-2.91h0.081l2.467,2.47V265.98z
		"/>
	<path d="M468.935,218.74v-6.65l-2.648-2.648h-4.641l-9.742,9.742v6.531l-1.521,1.521h-13.82v20.809l3.398,3.396h27.938l8.969,8.97
		h14.484l9.73-9.729v-15.214l-16.725-16.724h-15.423V218.74z M499.083,249.846l-8.56,8.56h-12.828l-8.964-8.972h-27.938
		l-2.229-2.227v-17.979h12.648l2.691-2.691v-6.531l8.57-8.57h2.983l1.478,1.479v7.822h16.596l15.55,15.553v13.557H499.083z"/>
	<path d="M467.689,201.014l10.282,10.283h13.83l2.919-2.921v-5.328h-10.246l-8.906-8.906h-7.879V201.014z M469.69,196.142h5.051
		l8.906,8.906h9.074v2.5l-1.748,1.749h-12.173l-9.11-9.111V196.142L469.69,196.142z"/>
	<path d="M176.349,105.963l-5.439,5.417v2.509l4.249,4.271l6.693-6.693L176.349,105.963z M172.91,113.062l-0.003-0.85l3.438-3.421
		l2.679,2.678l-3.861,3.861L172.91,113.062z"/>
	<path d="M145.976,41.292h-24.414v6.792h7.711l1.539,1.539V57h13.795l1.872,1.873v15.336h16.583v-7.664l-8.333-8.333v-8.167
		L145.976,41.292z M161.062,67.373v4.836h-12.583V58.045L145.435,55h-12.623v-6.205l-2.711-2.711h-6.539v-2.792h21.586l7.581,7.581
		v8.167L161.062,67.373z"/>
	<path d="M122.187,33.812h13.477l3.177-3.179V17.5h22.531V9.836l-9.242-9.242h-15.164v8.783h-13.383l-10.117,10.117v5.5h8.723
		L122.187,33.812L122.187,33.812z M115.469,22.992v-2.676l8.941-8.941h14.559V2.594h12.336l8.066,8.07V15.5h-22.527v14.304
		l-2.012,2.008h-10.646v-8.818L115.469,22.992L115.469,22.992z"/>
	<path d="M262.623,143v6.188h53.104l2.648-2.646v-9.789h-7.875v-4.086l1.944-1.945h12.056v-10.594h-7.021l-9.729-9.729l-2.688,2.688
		v7.727h-7.625v14.854h-4.25v-14.396l-3.961-3.961h-8.354v14.648l-2.066,2.066h-3.559v-3.613l2.031-2.031v-7.695H265.81v7.062h-7.75
		v12.664l2.586,2.586L262.623,143L262.623,143z M260.064,129.753h7.75v-7.062h7.469v4.867l-2.031,2.031v6.445h6.385l3.24-3.242
		v-13.479h5.523l2.789,2.789v15.563h8.25v-14.854h7.625v-8.896l0.688-0.688l8.896,8.898h5.854v6.594h-10.887l-3.113,3.117v6.914
		h7.875v6.961l-1.479,1.477h-50.273l-0.001-6.185h-3.146l-1.414-1.414V129.753L260.064,129.753z"/>
	<path d="M310.023,156.426v6.208l7.838,7.839h6.329v-6.362l-7.665-7.685H310.023z M322.19,168.473h-3.501l-6.666-6.667v-3.38h3.672
		l6.495,6.511V168.473z"/>
	<path d="M331.502,223.171v13.204h6.22l3.341-3.348V219.9H334.7L331.502,223.171z M339.066,221.901v10.304l-2.172,2.172h-3.392
		l0.003-10.392l2.04-2.084H339.066z"/>
	<path d="M413.063,16.46h-9.833v9.833h9.833V16.46z M411.063,24.293h-5.833V18.46h5.833V24.293z"/>
	<path d="M347.23,39.542l8.417-8.417v-7.497h-5.764l-9.653,9.668v16.665h7V39.542L347.23,39.542z M345.23,47.961h-3V34.124
		l8.483-8.496h2.934v4.669l-8.417,8.417V47.961z"/>
	<path d="M227.437,33.811h8.125v-9.31l-5.896-5.896V16.5h13.771v-6.289L240.726,7.5h-21.414V1.125h-16.5v7h-0.711L193.976,0h-7.539
		v7.5H170.91v15.127l-1.88,1.881h-7.382l-7.739,7.739v3.005h10.239l6.322,6.318h8.217v31.68h8.125v6.789L190.773,84h4.539V66.414
		l1.539-1.539h7.125l7.375-7.375h6.961v-7.75h9.125V33.811z M225.438,47.75h-9.125v7.75h-5.789l-7.375,7.375h-7.125l-2.711,2.711V82
		h-1.711l-2.79-2.789V71.25h-8.125V39.57h-9.393l-6.318-6.318h-9.067v-0.181l6.567-6.563h7.382l3.052-3.053V9.5h15.527V2h4.711
		l8.125,8.125h3.539v-7h12.5V9.5h22.586l1.54,1.539V14.5h-13.771v4.937l5.896,5.896v6.479h-8.125V47.75z"/>
	<path d="M460.819,187.284l-0.003-8.847l-8.288-8.287h-7.939v7.403l9.729,9.729L460.819,187.284L460.819,187.284z M446.593,172.15
		h5.111l7.116,7.115v6.021h-3.675l-8.554-8.561L446.593,172.15L446.593,172.15z"/>
	<path d="M442.535,213.594v-10.773h15.854v-7.179l-9.979-9.976h-5.44v8.265l-0.99,0.99h-13.285l-2.771,2.771v5.896l10.006,10.006
		H442.535L442.535,213.594z M440.534,211.594h-3.776l-8.835-8.834v-4.238l1.599-1.599h13.285l2.162-2.162v-7.093h2.614l8.807,8.804
		v4.351h-15.854L440.534,211.594L440.534,211.594z"/>
	<path d="M423.643,211.485l-6.972-6.971h-7.776v9.276l7.513,7.507h17.904v-7l-2.812-2.812H423.643z M432.312,219.297h-15.076
		l-6.341-6.338v-6.448h4.948l6.972,6.971h7.858l1.639,1.643V219.297z"/>
	<path d="M474.782,131.805v6.621h10.707l3.918-3.915v-21.604h-5.146l-2.979-2.977v-4.086h8.125v-9.562h-11.852l-2.773,2.773v22.914
		h7.625v2.211L474.782,131.805z M476.782,119.974V99.888l1.604-1.603h9.021v5.562h-8.125v6.914l4.148,4.146h3.977v18.773
		l-2.746,2.746h-7.879v-3.788l7.625-7.625v-5.039H476.782z"/>
	<path d="M244.188,106.441h10.664l4.083-4.088v-18.08l-5.066-5.027h-4.321v14.907l-5.358,5.375L244.188,106.441L244.188,106.441z
		 M246.188,100.354l5.358-5.375V81.246h1.497l3.895,3.859v16.42l-2.914,2.914h-7.836V100.354z"/>
	<path d="M236.063,92.646v5.104h5.789l3.711-3.714v-3.564l-3.577-3.749L236.063,92.646z M243.562,93.211l-2.539,2.539h-2.961v-2.275
		l3.89-3.89l1.61,1.688V93.211z"/>
	<path d="M223.648,70.667l5.019,5.019l3.979-3.979v-4.914h-5.353L223.648,70.667z M230.644,68.79v2.086l-1.979,1.979l-2.229-2.229
		l1.723-1.836H230.644z"/>
	<path d="M290.562,26.291v-7.333l-2.546-2.521h-13.204v7.018l2.838,2.838L290.562,26.291L290.562,26.291z M276.813,18.438h10.382
		l1.368,1.354v4.499h-10.084l-1.666-1.665V18.438L276.813,18.438z"/>
	<path d="M539.898,49.955h-46.582v-9.334h-17.583v8.083h-16v-8h-26.419l-2.664-2.664V22.039h-9.698v8.722l-1.55,1.55h-21.562
		l-8.104,8.104h-23.542l-10.629,10.629v6.247h-22.75v-7h-7.854v13.061l-2.062,2.062h-4.963l-2.039-2.039V49.041h-22.998
		l-9.503,9.503v6.997h-9.018v8.235l-7.931,7.935v5.271l3.146,3.146h14.219v-8.834h10V65.627h5.916v10.166h6.249v6.001h-7.583v7.583
		h-7.164l-8.584,8.583h-20.836v7.542h-2.955l-2.897,2.896h-5.303v0.681v1.319v4.051v0.016l4.74,4.741v2.376h-1.705l-2.628,2.628
		v1.956h-5.872l-2.961,2.961v10.828l3.252,3.252h9.247v3.844h-10.57L235,156.209v18.974l10.148,10.148h22.542l7.622,7.622v9.336
		h7.583v38.165l10.836,10.836h13.831l-0.001-8.17h7.668v-16.333h7.918v-32.209h5.205l10.378-10.379v-6.663h-6.416v-4.75h16.167
		v-9.913l-8.92-8.92h-8.831v-8.373h7.71l9.626,9.626h15.579v4.163l2.961,2.961h4.404v14.342l10.431,10.43h3.808l2.815-2.812v-12.938
		h9.168v-9.729h5.896v9.268l7.646,7.646v18.875l3.544,3.544h5.581v-14.919l9.169-9.168v-7.747h-7.919v-6.583h32.668v-17.164
		l-8.416-8.417v-6.253h6.777v6.854l8.307,8.311v-24.246h8.875V98.162l8.625-8.625v-7.706h20.539l8.875-8.875h6.795v3.212
		l-13.876,13.876v15.537h5.372l3.045-3.045V89.015h7.562l7.896-7.896V75.41l1.539-1.539h15.499l7.67-7.669v-7.245L539.898,49.955z
		 M546.901,65.374l-6.498,6.497h-15.499l-2.711,2.711v5.709l-6.727,6.727h-8.731v14.692l-1.873,1.873h-2.544V90.872l13.876-13.876
		v-6.04h-9.623l-8.875,8.875h-21.711v8.878l-8.625,8.625v22.289h-8.875v21.418l-4.307-4.311v-8.025h-10.777v9.081l8.416,8.417
		v14.336h-32.668v10.583h7.919v4.919l-9.169,9.168v13.747h-2.753l-2.372-2.372v-18.875l-7.646-7.646v-10.438h-9.896v9.729h-9.168
		v14.108l-1.644,1.644h-2.151l-9.259-9.258v-15.514h-5.576l-1.789-1.789v-5.335h-16.751l-9.626-9.626H328.73v12.373h10.003
		l7.748,7.748v7.085h-16.167v8.75h6.416v3.836l-9.206,9.206h-6.377v32.209h-7.918v16.333h-7.668v8.167h-11.003l-9.661-9.664V200.29
		h-7.583v-8.164l-8.794-8.794h-22.542l-8.979-8.979v-17.313l7.987-7.987h11.742v-7.844h-10.419l-2.08-2.08v-9.172l1.789-1.789h7.044
		v-3.128l1.456-1.456h2.877v-5.205l-4.74-4.741v-3.238h4.131l2.897-2.896h4.127V99.96h19.664l8.584-8.583h8.336v-7.583h7.583V73.793
		h-6.249V63.627h-9.916v15.666h-10v8.834H270.42l-1.971-1.975v-3.611l7.931-7.935v-7.063h9.018v-8.169l8.331-8.331h20.17v13.162
		l3.211,3.211h6.619l3.232-3.232V52.291h3.854v7h26.75v-7.419l9.457-9.457h23.545l8.104-8.104h21.562l2.722-2.722v-7.55h5.698
		v14.829l3.836,3.836h25.247v8h20v-8.083h13.583v9.334h47.754l7.83,7.83L546.901,65.374L546.901,65.374z"/>
</g>
<g>
	<rect x="259.32" y="110.399" width="2.415" height="7.579"/>
	<polygon points="264.754,110.399 262.339,111.662 262.339,117.978 264.754,117.978 	"/>
</g>
<g>
	<rect x="377.017" y="169.261" width="2.415" height="7.579"/>
	<polygon points="382.452,169.261 380.036,170.525 380.036,176.84 382.452,176.84 	"/>
</g>
<g>
	<rect x="246.188" y="150.84" width="2.415" height="7.579"/>
	<polygon points="251.623,150.84 249.207,152.104 249.207,158.419 251.623,158.419 	"/>
</g>
<g>
	<rect x="296.848" y="100.651" width="2.415" height="7.579"/>
	<polygon points="302.283,100.651 299.867,101.915 299.867,108.23 302.283,108.23 	"/>
</g>
</svg>
